<?xml version="1.0" encoding="UTF-8"?>
<svg width="117px" height="24px" viewBox="0 0 117 24" version="1.1" xmlns="http://www.w3.org/2000/svg" xmlns:xlink="http://www.w3.org/1999/xlink">
    <title>ACME Inc</title>
    <g id="ACME-Inc." stroke="none" stroke-width="1" fill="none" fill-rule="evenodd">
        <g id="Mobile/ACME-Inc./Error" transform="translate(-127.000000, -40.000000)" fill="#325050" fill-rule="nonzero">
            <g id="ACME-Inc." transform="translate(127.000000, 40.000000)">
                <path d="M9.82596291,19.8915835 L10.4079886,23.4179743 L15.0984308,23.4179743 L10.0998573,0.479315264 L5.16975749,0.479315264 L-1.35148404e-14,23.4179743 L4.4850214,23.4179743 L5.16975749,19.8915835 L9.82596291,19.8915835 Z M9.17546362,16.2282454 L5.78601997,16.2282454 L7.60057061,5.82025678 L9.17546362,16.2282454 Z" id="Shape"></path>
                <path d="M28.7589158,6.12838802 C28.6219686,4.86162625 28.4507846,4.10841655 28.0741797,3.21825963 C27.2182596,1.19828816 25.3352354,0 23.0071327,0 C20.4051355,0 18.21398,1.54065621 17.3238231,4.03994294 C16.6048502,5.9914408 16.3309558,8.35378031 16.3309558,12.3594864 C16.3309558,16.5363766 16.6733238,18.7617689 17.5977175,20.8159772 C18.5221113,22.8017118 20.4393723,24 22.6647646,24 C25.9172611,24 28.2796006,21.5349501 28.7589158,17.5634807 L24.8559201,16.0912981 C24.5820257,19.0356633 24.0342368,20.2339515 22.8701854,20.2339515 C21.4322397,20.2339515 20.8844508,18.1112696 20.8844508,12.3937233 C20.8844508,6.16262482 21.5007133,3.7660485 23.0756063,3.7660485 C24,3.7660485 24.5820257,4.93009986 24.8559201,7.18972896 L28.7589158,6.12838802 Z" id="Path"></path>
                <polygon id="Path" points="31.7375178 0.582025678 31.7375178 23.4179743 35.8459344 23.4179743 35.8459344 9.48359486 38.5848787 20.67903 42.1112696 20.67903 44.8844508 9.48359486 44.8844508 23.4179743 48.9928673 23.4179743 48.9928673 0.582025678 44.0970043 0.582025678 40.3994294 15.0299572 36.7360913 0.582025678"></polygon>
                <polygon id="Path" points="53.1012839 0.582025678 53.1012839 23.4179743 62.721826 23.4179743 62.721826 19.6519258 57.5520685 19.6519258 57.5520685 13.489301 62.721826 13.489301 62.721826 9.79172611 57.5520685 9.79172611 57.5520685 4.34807418 62.721826 4.34807418 62.721826 0.582025678"></polygon>
                <polygon id="Path" points="79.4978602 0.582025678 75.0470756 0.582025678 75.0470756 23.4179743 79.4978602 23.4179743"></polygon>
                <path d="M87.4065621,6.53922967 L83.3666191,6.53922967 L83.3666191,23.4179743 L87.5777461,23.4179743 L87.5777461,12.2225392 C87.5777461,10.6476462 87.9885877,9.96291013 88.9814551,9.96291013 C90.0085592,9.96291013 90.3851641,10.5449358 90.3851641,12.2225392 L90.3851641,23.4179743 L94.596291,23.4179743 L94.596291,10.168331 C94.596291,7.532097 93.4664765,6.09415121 91.4122682,6.09415121 C89.7689016,6.09415121 88.7075606,6.84736091 87.4065621,8.9700428 L87.4065621,6.53922967 Z" id="Path"></path>
                <path d="M108.770328,10.7845934 C108.085592,7.42938659 106.613409,6.09415121 103.566334,6.09415121 C99.4921541,6.09415121 97.8145506,8.66191155 97.8145506,14.89301 C97.8145506,18.1455064 98.1569187,20.0627675 99.0470756,21.5007133 C99.9372325,22.9728959 101.580599,23.8630528 103.429387,23.8630528 C105.10699,23.8630528 106.613409,23.1783167 107.503566,22.0827389 C108.085592,21.3295292 108.42796,20.4736091 108.770328,19.0356633 L105.10699,18.0085592 C104.798859,19.788873 104.456491,20.3366619 103.669044,20.3366619 C102.470756,20.3366619 102.128388,19.2068474 102.128388,15.1326676 C102.128388,10.9900143 102.53923,9.51783167 103.737518,9.51783167 C104.388017,9.51783167 104.798859,10.168331 105.10699,11.6747504 L108.770328,10.7845934 Z" id="Path"></path>
                <path d="M114.008559,19.1383738 C112.776034,19.1383738 111.714693,20.1997147 111.714693,21.4322397 C111.714693,22.7332382 112.741797,23.7603424 114.008559,23.7603424 C115.309558,23.7603424 116.336662,22.7332382 116.336662,21.4322397 C116.336662,20.1654779 115.309558,19.1383738 114.008559,19.1383738 Z" id="Path"></path>
            </g>
        </g>
    </g>
</svg>