<?xml version="1.0" encoding="UTF-8"?>
<svg width="24px" height="24px" viewBox="0 0 24 24" version="1.1" xmlns="http://www.w3.org/2000/svg" xmlns:xlink="http://www.w3.org/1999/xlink">
    <title>Icon/24/Clock</title>
    <g id="ACME-Inc." stroke="none" stroke-width="1" fill="none" fill-rule="evenodd">
        <g transform="translate(-28.000000, -340.000000)" id="Icon/24/Clock">
            <g transform="translate(28.000000, 340.000000)">
                <rect id="Rectangle" x="0" y="0" width="24" height="24"></rect>
                <g id="Clock_24px" transform="translate(4.000000, 4.000000)" fill="#A2B0B0" fill-rule="nonzero">
                    <path d="M8,0 C3.581722,0 0,3.581722 0,8 C0,12.418278 3.581722,16 8,16 C12.418278,16 16,12.418278 16,8 C16,5.87826808 15.1571453,3.84343678 13.6568542,2.34314575 C12.1565632,0.842854723 10.1217319,0 8,0 Z M13,8.15 C13,8.61944204 12.619442,9 12.15,9 L7.85,9 C7.38055796,9 6.99994499,8.61944204 6.99994499,8.15 L6.99994499,3.93 C6.99733337,3.68599657 7.09171341,3.45092907 7.2623746,3.27651708 C7.4330358,3.10210509 7.66599625,3.0026378 7.91,2.99994499 L8.07,2.99994499 C8.31400343,2.99733337 8.54907093,3.09171341 8.72348292,3.2623746 C8.89789491,3.4330358 8.9973622,3.66599625 9,3.91 L9,7 L12.15,7 C12.619442,7 13,7.38055796 13,7.85 L13,8.15 Z" id="Shape"></path>
                </g>
            </g>
        </g>
    </g>
</svg>