<?xml version="1.0" encoding="UTF-8"?>
<svg width="24px" height="24px" viewBox="0 0 24 24" version="1.1" xmlns="http://www.w3.org/2000/svg" xmlns:xlink="http://www.w3.org/1999/xlink">
    <title>Instagram Icon</title>
    <g id="ACME-Inc." stroke="none" stroke-width="1" fill="none" fill-rule="evenodd">
        <g transform="translate(-323.000000, -340.000000)" id="Instagram-Icon">
            <g transform="translate(323.000000, 340.000000)">
                <path d="M11.9999841,5.44147062 C14.1360866,5.44147062 14.3890871,5.44960017 15.2326547,5.48808851 C16.0126469,5.52368704 16.4362408,5.65401386 16.718171,5.76354048 C17.0915586,5.90866563 17.3580872,6.08205366 17.6380167,6.36198324 C17.9179463,6.64191282 18.0913344,6.90844136 18.2364277,7.28182899 C18.3459861,7.5637592 18.4763129,7.98735315 18.5119115,8.7673135 C18.5503998,9.61091297 18.5585294,9.86391342 18.5585294,12.0000159 C18.5585294,14.1361183 18.5503998,14.3891188 18.5119115,15.2326865 C18.4763129,16.0126786 18.3459861,16.4362726 18.2364277,16.7182027 C18.0913344,17.0915904 17.9179463,17.3581189 17.6380167,17.6380485 C17.3580872,17.9179781 17.0915586,18.0913661 16.718171,18.2364595 C16.4362408,18.3460179 16.0126469,18.4763448 15.2326547,18.5119433 C14.3892141,18.5504316 14.1362136,18.5585611 11.9999841,18.5585611 C9.86375464,18.5585611 9.61075419,18.5504316 8.7673135,18.5119433 C7.9873214,18.4763448 7.56372744,18.3460179 7.28182899,18.2364595 C6.9084096,18.0913661 6.64188107,17.9179781 6.36195149,17.6380485 C6.08202191,17.3581189 5.90863387,17.0915904 5.76354048,16.7182027 C5.65398211,16.4362726 5.52365528,16.0126786 5.48805675,15.2327182 C5.44956841,14.3891188 5.44143887,14.1361183 5.44143887,12.0000159 C5.44143887,9.86391342 5.44956841,9.61091297 5.48805675,8.76734526 C5.52365528,7.98735315 5.65398211,7.5637592 5.76354048,7.28182899 C5.90863387,6.90844136 6.08202191,6.64191282 6.36195149,6.36198324 C6.64188107,6.08205366 6.9084096,5.90866563 7.28182899,5.76354048 C7.56372744,5.65401386 7.9873214,5.52368704 8.76728174,5.48808851 C9.61088121,5.44960017 9.86388166,5.44147062 11.9999841,5.44147062 M11.9999841,4 C9.82729869,4 9.55489529,4.00920925 8.70161023,4.04814217 C7.85007175,4.08701158 7.26855496,4.22222884 6.75966426,4.42000552 C6.23359354,4.62445097 5.78745279,4.89799758 5.34270931,5.34274106 C4.89796582,5.78748454 4.62441921,6.23362529 4.41997376,6.75969601 C4.22219708,7.26858672 4.08697982,7.85010351 4.04811042,8.70164199 C4.0091775,9.55489529 4,9.82733045 4,12.0000159 C4,14.1727013 4.0091775,14.4451364 4.04811042,15.2983898 C4.08697982,16.1499283 4.22219708,16.7314451 4.41997376,17.2403357 C4.62441921,17.7663747 4.89796582,18.2125472 5.34270931,18.6572907 C5.78745279,19.1020342 6.23359354,19.3755808 6.75966426,19.5800262 C7.26855496,19.7778029 7.85007175,19.9130202 8.70161023,19.9518896 C9.55489529,19.9908225 9.82729869,20 11.9999841,20 C14.1726696,20 14.4451047,19.9908225 15.298358,19.9518896 C16.1498965,19.9130202 16.7314133,19.7778029 17.240304,19.5800262 C17.7663747,19.3755808 18.2125154,19.1020342 18.6572589,18.6572907 C19.1020024,18.2125472 19.3755491,17.7664064 19.5799945,17.2403357 C19.7777712,16.7314451 19.9129884,16.1499283 19.9518578,15.2983898 C19.9907908,14.4451364 20,14.1727013 20,12.0000159 C20,9.82733045 19.9907908,9.55489529 19.9518578,8.70164199 C19.9129884,7.85010351 19.7777712,7.26858672 19.5799945,6.75969601 C19.3755491,6.23362529 19.1020024,5.78748454 18.6572589,5.34274106 C18.2125154,4.89799758 17.7663747,4.62445097 17.240304,4.42000552 C16.7314133,4.22222884 16.1498965,4.08701158 15.298358,4.04814217 C14.4451047,4.00920925 14.1726696,4 11.9999841,4 Z M11.9999841,7.89189447 C9.73114137,7.89189447 7.89186271,9.73117312 7.89186271,12.0000159 C7.89186271,14.2688586 9.73114137,16.1081373 11.9999841,16.1081373 C14.2688269,16.1081373 16.1081056,14.2688586 16.1081056,12.0000159 C16.1081056,9.73117312 14.2688269,7.89189447 11.9999841,7.89189447 Z M11.9999841,14.6666984 C10.5272338,14.6666984 9.33330158,13.4727662 9.33330158,12.0000159 C9.33330158,10.5272656 10.5272338,9.33333333 11.9999841,9.33333333 C13.4727344,9.33333333 14.6666667,10.5272656 14.6666667,12.0000159 C14.6666667,13.4727662 13.4727344,14.6666984 11.9999841,14.6666984 Z M17.2303961,7.72958929 C17.2303961,8.25978831 16.8006097,8.68960644 16.2704107,8.68960644 C15.7402117,8.68960644 15.3103936,8.25978831 15.3103936,7.72958929 C15.3103936,7.19939028 15.7402117,6.7696039 16.2704107,6.7696039 C16.8006097,6.7696039 17.2303961,7.19939028 17.2303961,7.72958929 Z" id="Shape" fill="#A2B0B0" fill-rule="nonzero"></path>
                <rect id="Rectangle" x="0" y="0" width="24" height="24"></rect>
            </g>
        </g>
    </g>
</svg>